<?xml version="1.0" standalone="no"?>
<!DOCTYPE svg PUBLIC "-//W3C//DTD SVG 1.1//EN" "http://www.w3.org/Graphics/SVG/1.1/DTD/svg11.dtd" >
<svg xmlns="http://www.w3.org/2000/svg">
<metadata></metadata>
<defs>
<font id="helveticaneuecyrlight" horiz-adv-x="1138" >
<font-face units-per-em="2048" ascent="1638" descent="-410" />
<missing-glyph horiz-adv-x="569" />
<glyph horiz-adv-x="2048" />
<glyph horiz-adv-x="2048" />
<glyph unicode="&#xd;" horiz-adv-x="2048" />
<glyph unicode=" "  horiz-adv-x="569" />
<glyph unicode="&#x09;" horiz-adv-x="569" />
<glyph unicode="&#xa0;" horiz-adv-x="569" />
<glyph unicode="!" horiz-adv-x="493" d="M170 0v203h154v-203h-154zM178 1030v428h137v-428l-30 -663h-76z" />
<glyph unicode="&#x22;" horiz-adv-x="757" d="M172 1415h111l-15 -573h-82zM477 1415h109l-15 -573h-79z" />
<glyph unicode="#" d="M35 530h252l65 357h-231v98h250l80 430h110l-80 -430h281l80 430h110l-80 -430h234v-98h-252l-66 -357h232l2 -98h-252l-80 -432h-110l79 432h-280l-80 -432h-111l80 432h-231zM397 530h281l65 357h-280z" />
<glyph unicode="$" d="M47 422v10h127v-24q0 -311 348 -334v610q-80 17 -139.5 35.5t-117.5 49t-94 69.5t-58.5 96.5t-22.5 130.5q0 168 116 272.5t316 116.5v148h76v-148q202 -1 318 -102.5t116 -276.5v-20h-125q0 148 -78.5 216.5t-230.5 76.5v-560q477 -70 477 -411q0 -184 -131 -296 t-346 -112v-178h-76v178q-230 3 -352.5 119.5t-122.5 333.5zM215 1075q0 -64 26 -113.5t71.5 -80t96.5 -49t113 -27.5v541q-143 -9 -225 -81.5t-82 -189.5zM598 72q161 3 255.5 85.5t94.5 217.5q0 59 -20.5 105.5t-50 75t-80.5 51.5t-93 35t-106 26v-596z" />
<glyph unicode="%" horiz-adv-x="1820" d="M139 1067q0 181 87 282t243 101q155 0 237 -96.5t82 -278.5q0 -189 -85 -293t-240 -104q-157 0 -240.5 100t-83.5 289zM252 1059q0 -141 55 -217t156 -76q103 0 159 79.5t56 225.5q0 142 -54.5 216.5t-158.5 74.5t-158.5 -77.5t-54.5 -225.5zM414 -66l870 1557h105 l-869 -1557h-106zM1040 362q0 181 87 282t243 101q155 0 237.5 -96.5t82.5 -277.5q0 -189 -85.5 -293.5t-240.5 -104.5q-157 0 -240.5 100t-83.5 289zM1153 354q0 -141 55 -217t156 -76q103 0 159 80t56 226q0 142 -54.5 216t-158.5 74t-158.5 -77.5t-54.5 -225.5z" />
<glyph unicode="&#x26;" horiz-adv-x="1251" d="M78 367q0 76 30.5 145.5t84.5 124.5t113.5 96.5t131.5 77.5q-40 48 -63.5 80t-54 81t-45.5 96.5t-15 94.5q0 129 91 211t237 82q138 0 227.5 -81.5t89.5 -207.5q0 -65 -24 -122.5t-69 -105.5t-89 -82t-105 -73l308 -378q43 112 49 239h121q-3 -82 -28 -176.5t-60 -159.5 l262 -309h-164l-166 203q-154 -232 -426 -232q-193 0 -314.5 110.5t-121.5 285.5zM207 369q0 -121 92.5 -206t224.5 -85q108 0 195 57t147 154l-358 440q-124 -79 -162 -110q-138 -113 -139 -250zM381 1165q0 -56 26 -105t75.5 -107.5t66.5 -84.5q233 130 233 291 q0 82 -56.5 137.5t-141.5 55.5q-87 0 -145 -53.5t-58 -133.5z" />
<glyph unicode="'" horiz-adv-x="569" d="M229 1415h111l-14 -573h-82z" />
<glyph unicode="(" horiz-adv-x="493" d="M104 537q0 234 77.5 494t211.5 439h103q-126 -201 -194.5 -444t-68.5 -491q0 -242 68 -480.5t195 -445.5h-103q-73 127 -121.5 228t-89 215.5t-59.5 233.5t-19 251z" />
<glyph unicode=")" horiz-adv-x="493" d="M2 -391q126 206 194 445t68 481q0 249 -68 491.5t-194 443.5h102q134 -179 211.5 -439t77.5 -494q0 -132 -19 -251t-59.5 -233.5t-89 -215.5t-121.5 -228h-102z" />
<glyph unicode="*" horiz-adv-x="720" d="M55 1241l27 78l235 -84v250h84v-250l236 84l29 -78l-240 -80l147 -200l-63 -50l-152 207l-149 -205l-68 50l148 198z" />
<glyph unicode="+" horiz-adv-x="1228" d="M104 444v101h453v444h111v-444h454v-101h-454v-444h-111v444h-453z" />
<glyph unicode="," horiz-adv-x="569" d="M190 -197q47 20 69.5 67t23.5 130h-80v211h168v-152q0 -65 -6 -111t-23.5 -94t-55.5 -82t-96 -55v86z" />
<glyph unicode="-" horiz-adv-x="757" d="M123 500v125h514v-125h-514z" />
<glyph unicode="." horiz-adv-x="569" d="M203 0v211h168v-211h-168z" />
<glyph unicode="/" horiz-adv-x="681" d="M-31 -35l641 1528h107l-639 -1528h-109z" />
<glyph unicode="0" d="M70 686q0 754 497 754q502 0 502 -744q0 -112 -12 -208.5t-45.5 -195.5t-87.5 -168.5t-144.5 -113t-210.5 -43.5q-88 0 -161 22.5t-124 60t-89.5 93.5t-62 116.5t-38 135.5t-19.5 143.5t-5 147.5zM203 682q0 -60 3 -112t12.5 -115.5t25 -114.5t43.5 -101.5t65.5 -84.5 t93 -55t123.5 -21q365 0 365 622q0 60 -2.5 112.5t-12 118.5t-25 119t-43.5 106t-65 88.5t-93 58t-124 22.5q-70 0 -126 -23t-93.5 -59.5t-65.5 -91.5t-43 -109t-24 -122.5t-11.5 -121.5t-2.5 -116z" />
<glyph unicode="1" d="M201 1065v98q46 2 70 3t60.5 3.5t54.5 6.5t45.5 11t41.5 17t33.5 24.5t30.5 33.5t24.5 43.5t22.5 55.5t18 69h105v-1430h-136v1065h-370z" />
<glyph unicode="2" d="M74 0q5 88 31.5 162.5t62 127.5t95 106.5t111.5 90.5t131 89q13 8 19 12q146 95 203 146q154 137 154 300q0 133 -87.5 214t-230.5 81q-90 0 -155.5 -31t-102 -86.5t-53 -123.5t-16.5 -152h-127v18q0 228 122.5 358t337.5 130q201 0 322 -111t121 -295q0 -79 -29.5 -153 t-64.5 -123.5t-108.5 -110.5t-114 -89t-128.5 -84q-13 -9 -20 -13q-137 -88 -186 -130q-121 -102 -142 -220q8 0 20 1t15 1h764v-115h-944z" />
<glyph unicode="3" d="M68 424v33h125v-6q0 -173 97 -272t269 -99q157 0 258 89t101 228q0 83 -30.5 143.5t-85 94t-119 48.5t-142.5 15q-39 0 -70 -2v109h53q107 0 172 22q82 31 126 93t44 147q0 120 -83 192t-222 72q-157 0 -244.5 -93t-93.5 -265h-121q3 221 125.5 344t339.5 123 q193 0 311.5 -101.5t118.5 -265.5q0 -117 -64.5 -200t-176.5 -111q141 -29 217 -120t76 -230q0 -198 -136.5 -321.5t-357.5 -123.5q-223 0 -355 124t-132 333z" />
<glyph unicode="4" d="M61 356v121l672 957h109v-971h217v-107h-217v-356h-119v356h-662zM166 463h557v565q0 138 2 236q-234 -365 -559 -801z" />
<glyph unicode="5" d="M74 410h127q8 -151 101 -241.5t247 -90.5q157 0 259.5 108.5t102.5 272.5q0 167 -102 273t-262 106q-206 0 -318 -166l-114 4l141 739h715v-115h-621l-102 -495q112 143 325 143q204 0 336.5 -135.5t132.5 -345.5q0 -214 -139 -356t-354 -142q-212 0 -341 120t-134 321z " />
<glyph unicode="6" d="M84 672q0 374 134 573t386 199q181 0 292 -97.5t134 -277.5h-129q-19 122 -97.5 193t-203.5 71q-71 0 -129.5 -23.5t-97.5 -60.5t-69 -93.5t-46.5 -110.5t-28 -124.5t-15.5 -123t-7 -117.5q57 120 160.5 185t238.5 65q200 0 329.5 -133t129.5 -338q0 -214 -135 -353 t-344 -139q-129 0 -234 57.5t-170 161.5q-98 158 -98 486zM236 457q0 -163 99 -270t251 -107q151 0 248.5 105t97.5 266q0 164 -97.5 267t-252.5 103q-150 0 -248 -103.5t-98 -260.5z" />
<glyph unicode="7" d="M104 1294v121h924v-117q-253 -265 -404.5 -597t-177.5 -701h-139q18 348 180.5 694.5t415.5 599.5h-799z" />
<glyph unicode="8" d="M78 403q0 144 76.5 241.5t214.5 129.5q-111 31 -172.5 111.5t-61.5 195.5q0 166 119 266.5t315 100.5t314 -98t118 -260q0 -119 -60 -199.5t-171 -116.5q135 -30 213 -124t78 -234q0 -205 -132.5 -324t-361.5 -119q-224 0 -356.5 116.5t-132.5 313.5zM209 408 q0 -148 98 -237t262 -89q163 0 261 88.5t98 237.5q0 141 -99 226t-264 85q-161 0 -258.5 -85.5t-97.5 -225.5zM262 1075q0 -117 83.5 -185.5t223.5 -68.5q141 0 223 69t82 187q0 120 -81 188t-224 68q-141 0 -224 -69t-83 -189z" />
<glyph unicode="9" d="M70 956q0 213 135 351.5t342 138.5q259 0 395 -205q57 -88 82 -204.5t25 -293.5q0 -222 -41 -374q-53 -192 -174 -296t-293 -104q-182 0 -301 101.5t-134 271.5h125q19 -121 103 -191.5t209 -70.5q83 0 147.5 33t104 84t67 123t39.5 139t17 143q4 47 4 107v39 q-53 -129 -153 -197t-241 -68q-201 0 -329.5 133t-128.5 340zM201 963q0 -161 96 -263t248 -102q154 0 251 101.5t97 261.5q0 161 -99 266.5t-251 105.5q-148 0 -245 -105t-97 -265z" />
<glyph unicode=":" horiz-adv-x="569" d="M203 0v211h168v-211h-168zM203 815v211h168v-211h-168z" />
<glyph unicode=";" horiz-adv-x="569" d="M190 -197q47 20 69.5 67t23.5 130h-80v211h168v-152q0 -65 -6 -111t-23.5 -94t-55.5 -82t-96 -55v86zM203 815v211h168v-211h-168z" />
<glyph unicode="&#x3c;" horiz-adv-x="1228" d="M98 477v111l1018 409v-110l-891 -355l891 -352v-108z" />
<glyph unicode="=" horiz-adv-x="1228" d="M104 281v98h1018v-98h-1018zM104 655v99h1018v-99h-1018z" />
<glyph unicode="&#x3e;" horiz-adv-x="1228" d="M113 72v108l891 352l-891 355v110l1017 -409v-111z" />
<glyph unicode="?" horiz-adv-x="1099" d="M100 1004q0 101 28 188t82.5 153t142.5 104t200 38q191 0 308.5 -104t117.5 -273q0 -67 -17 -123t-52 -104.5t-69 -84t-87 -85.5q-14 -13 -21 -19q-46 -43 -72 -76.5t-38.5 -75t-15.5 -77.5t-3 -105h-123q0 121 22 195t56.5 118t128.5 138l27 27q67 67 98 130t31 134 q0 121 -81 196.5t-212 75.5q-69 0 -125 -20.5t-93 -55t-61.5 -82.5t-35.5 -100.5t-11 -111.5h-125zM465 0v205h153v-205h-153z" />
<glyph unicode="@" horiz-adv-x="1638" d="M61 705q0 163 64 307.5t174.5 247.5t265 163t328.5 60q199 0 355 -76t242.5 -213.5t86.5 -312.5q0 -141 -57 -264t-153 -196t-206 -73q-69 0 -112 39t-43 102q0 21 14 76q-52 -104 -123 -160.5t-178 -56.5q-121 0 -197 83.5t-76 217.5q0 129 55.5 242.5t149 181.5 t199.5 68q103 0 169 -51.5t83 -143.5l49 166h102l-116 -389q-47 -151 -47 -213q0 -41 27 -65.5t71 -24.5q79 0 153 65.5t119 172.5t45 223q0 236 -170 383t-444 147q-159 0 -299.5 -55t-240.5 -149t-158 -225.5t-58 -279.5q0 -150 59 -275t158.5 -208t231 -128.5 t276.5 -45.5q309 0 582 197l41 -54q-151 -109 -299 -162t-326 -53q-161 0 -306 51.5t-254 144t-173 231.5t-64 305zM567 651q0 -106 49 -168.5t132 -62.5q68 0 128 48t96.5 119t57.5 147t21 138q0 89 -49.5 143t-129.5 54q-76 0 -147 -59.5t-114.5 -157t-43.5 -201.5z" />
<glyph unicode="A" horiz-adv-x="1290" d="M-18 0l589 1462h154l582 -1462h-154l-176 459h-668l-178 -459h-149zM352 571h582l-287 760z" />
<glyph unicode="B" horiz-adv-x="1366" d="M147 0v1458h625q93 0 173 -21t145 -63t102 -114t37 -166q0 -117 -73.5 -207.5t-178.5 -114.5q64 -12 117 -37.5t97.5 -67t69.5 -105t25 -144.5q0 -103 -39 -184t-107 -131.5t-156.5 -76.5t-190.5 -26h-646zM283 119h436q69 0 123.5 5.5t114 24.5t99 50t65.5 86.5 t26 130.5q0 72 -27 125t-68 83t-102.5 47.5t-116 23t-122.5 5.5h-428v-581zM283 813h462q67 0 125 13t110 41.5t82 81.5t30 126q0 66 -22.5 115t-58 77t-88 45t-102.5 22t-112 5h-426v-526z" />
<glyph unicode="C" horiz-adv-x="1441" d="M80 727q0 155 45 293t128.5 243.5t214.5 167.5t292 62q106 0 207 -32.5t183.5 -92t138 -150t67.5 -198.5h-139q-34 163 -158 257.5t-303 94.5q-243 0 -391 -177.5t-148 -467.5t146 -465.5t389 -175.5q212 0 336.5 130t148.5 343h137q-23 -270 -193.5 -431t-432.5 -161 q-303 0 -485.5 207.5t-182.5 552.5z" />
<glyph unicode="D" horiz-adv-x="1402" d="M145 0v1458h529q167 0 293 -51.5t203.5 -145.5t116 -221t38.5 -284q0 -125 -22 -235.5t-71 -207t-122.5 -165.5t-181.5 -108.5t-242 -39.5h-541zM285 119h366q535 0 535 629q0 279 -131.5 435t-380.5 156h-389v-1220z" />
<glyph unicode="E" horiz-adv-x="1214" d="M147 0v1458h1012v-119h-872v-526h817v-117h-817v-577h880v-119h-1020z" />
<glyph unicode="F" horiz-adv-x="1099" d="M145 0v1458h930v-119h-792v-524h704v-119h-704v-696h-138z" />
<glyph unicode="G" horiz-adv-x="1517" d="M80 715q0 227 86.5 403t244 273.5t361.5 97.5q154 0 282 -55t214.5 -165t109.5 -261h-133q-31 167 -163.5 264.5t-307.5 97.5q-254 0 -405.5 -177.5t-151.5 -475.5q0 -288 152 -461.5t403 -173.5q194 0 330.5 114t165.5 302q8 57 8 129h-500v114h623v-741h-92l-25 207 l-4 65q-66 -146 -200 -226.5t-312 -80.5q-202 0 -358 94.5t-242 265t-86 390.5z" />
<glyph unicode="H" horiz-adv-x="1441" d="M145 0v1458h140v-635h872v635h137v-1458h-137v705h-872v-705h-140z" />
<glyph unicode="I" horiz-adv-x="454" d="M158 0v1458h139v-1458h-139z" />
<glyph unicode="J" horiz-adv-x="1024" d="M49 414q0 28 2 57h133v-43q0 -84 11 -142.5t41 -107t87.5 -72.5t145.5 -24q70 0 120.5 18.5t80 48.5t46 77.5t22 94.5t5.5 111v1026h138v-1063q0 -206 -100.5 -317t-311.5 -111q-222 0 -321 112.5t-99 334.5z" />
<glyph unicode="K" horiz-adv-x="1327" d="M145 0v1458h138v-784l850 784h184l-658 -596l691 -862h-179l-610 768l-278 -254v-514h-138z" />
<glyph unicode="L" horiz-adv-x="1099" d="M150 0v1458h139v-1339h819v-119h-958z" />
<glyph unicode="M" horiz-adv-x="1705" d="M145 0v1458h189l424 -1040q11 -26 100 -275q12 32 44 126.5t52 144.5l418 1044h191v-1458h-133v881q0 212 16 458q-49 -148 -96 -264l-430 -1075h-125l-437 1063q-41 98 -96 268q17 -255 17 -446v-885h-134z" />
<glyph unicode="N" horiz-adv-x="1441" d="M145 0v1458h154l682 -989q109 -157 190 -305q-10 322 -10 385v909h133v-1458h-153l-678 979q-137 195 -193 311q11 -161 11 -348v-942h-136z" />
<glyph unicode="O" horiz-adv-x="1517" d="M72 729q0 225 85.5 399t241.5 269.5t359 95.5q306 0 497 -213t191 -555q0 -341 -190.5 -550.5t-499.5 -209.5q-307 0 -495.5 210.5t-188.5 553.5zM211 733q0 -293 149.5 -470t397.5 -177q247 0 398 176t151 465t-152 467t-399 178q-244 0 -394.5 -176.5t-150.5 -462.5z " />
<glyph unicode="P" horiz-adv-x="1290" d="M154 0v1458h624q210 0 334.5 -105t124.5 -304q0 -208 -125 -317t-338 -109h-481v-623h-139zM293 739h442q78 0 142 16.5t114.5 51t78.5 93.5t28 138q0 152 -92.5 226.5t-255.5 74.5h-457v-600z" />
<glyph unicode="Q" horiz-adv-x="1517" d="M72 721q0 225 86 399.5t242 270.5t358 96t358 -95.5t242 -268.5t86 -396q0 -175 -56 -326t-159 -254l207 -157l-70 -88l-229 174q-66 -52 -168 -82.5t-209 -30.5q-307 0 -497.5 210t-190.5 548zM211 725v-8q0 -286 150 -459q152 -176 405 -176q151 0 264 78l-192 145 l71 88l215 -168q96 107 139.5 229t43.5 275q0 285 -151.5 461t-397.5 176q-245 0 -396 -177t-151 -464z" />
<glyph unicode="R" horiz-adv-x="1366" d="M147 0v1458h660q206 0 330.5 -97t124.5 -296q0 -141 -75 -234t-210 -126q134 -24 190.5 -101t65.5 -229q0 -2 2.5 -54.5t5.5 -88.5t10 -87.5t20 -88.5t32 -56h-158q-18 23 -27 79.5t-12.5 148.5t-3.5 96q-5 69 -16.5 119.5t-33 87t-50.5 59.5t-73 37t-94 19t-120 5h-428 v-651h-140zM287 762h411q58 0 104 4t97.5 14.5t89.5 31.5t70 52.5t48.5 80.5t16.5 112q0 282 -362 282h-475v-577z" />
<glyph unicode="S" horiz-adv-x="1290" d="M80 469v12h133q0 -198 122 -298.5t337 -100.5q189 0 297 80t108 221q0 33 -6.5 60.5t-16 50t-30 42.5t-40.5 35.5t-55 31t-65.5 27t-80.5 25.5t-92 24.5t-107 25.5q-179 41 -252 73q-160 71 -194 213q-11 44 -11 96q0 185 136.5 292.5t371.5 107.5q237 0 378.5 -114.5 t151.5 -334.5h-135q-9 163 -116 247.5t-289 84.5q-172 0 -268.5 -72t-96.5 -202q0 -31 6.5 -58t15.5 -47.5t29 -39.5t36 -32t48 -26.5t53 -21.5t63 -18.5t67 -16.5t75 -17q64 -14 104.5 -23.5t95 -24.5t88.5 -28t76 -33t67.5 -40.5t52 -49t41 -61t23.5 -73.5t9 -89 q0 -91 -31.5 -165t-83.5 -122t-123.5 -80.5t-148.5 -46.5t-161 -14q-272 0 -427 133.5t-155 366.5z" />
<glyph unicode="T" d="M-12 1339v119h1163v-119h-512v-1339h-139v1339h-512z" />
<glyph unicode="U" horiz-adv-x="1402" d="M133 551v907h139v-872q0 -123 20 -210.5t68 -155t135 -101t216 -33.5q102 0 176.5 24t120.5 65.5t74 106.5t38 137.5t10 168.5v870h140v-911q0 -284 -140.5 -431t-420.5 -147q-286 0 -431 147.5t-145 434.5z" />
<glyph unicode="V" horiz-adv-x="1214" d="M-18 1458h155l381 -1048q48 -133 92 -291q13 37 44 136.5t51 152.5l378 1050h148l-541 -1458h-162z" />
<glyph unicode="W" horiz-adv-x="1857" d="M2 1458h145l273 -1012q26 -97 67 -301q22 126 74 301l289 1012h158l295 -1026q55 -183 69 -287q9 37 30.5 135t35.5 150l274 1028h139l-403 -1458h-150l-297 1026q-56 194 -73 301q-17 -53 -42 -153.5t-38 -143.5l-291 -1030h-151z" />
<glyph unicode="X" horiz-adv-x="1175" d="M-29 0l531 750l-498 708h164l326 -467q18 -26 47.5 -75.5t42.5 -69.5q45 63 94 147l334 465h153l-497 -708l526 -750h-168l-364 522q-43 61 -55 84.5t-23 40.5q-11 -11 -26.5 -33.5t-32.5 -50.5t-25 -39l-369 -524h-160z" />
<glyph unicode="Y" horiz-adv-x="1251" d="M-20 1458h165l408 -610q17 -25 45 -71.5t35 -57.5q29 53 74 123l409 616h158l-578 -856v-602h-137v602z" />
<glyph unicode="Z" horiz-adv-x="1175" d="M10 0v125l963 1214h-895v119h1052v-121l-962 -1218h983v-119h-1141z" />
<glyph unicode="[" horiz-adv-x="493" d="M156 -377v1856h331v-101h-211v-1652h211v-103h-331z" />
<glyph unicode="\" horiz-adv-x="681" d="M-31 1493h107l641 -1528h-109z" />
<glyph unicode="]" horiz-adv-x="493" d="M6 -274h211v1650h-211v103h332v-1856h-332v103z" />
<glyph unicode="^" horiz-adv-x="1228" d="M217 608l344 850h109l342 -850h-117l-283 721l-276 -721h-119z" />
<glyph unicode="_" horiz-adv-x="1024" d="M0 -154h1024v-102h-1024v102z" />
<glyph unicode="`" horiz-adv-x="378" d="M-68 1503h164l213 -289h-102z" />
<glyph unicode="a" horiz-adv-x="1062" d="M66 266q0 285 391 326q21 2 58 5.5t53.5 5t44.5 4.5t41.5 5.5t33 6t31 7.5t24 9.5t21.5 11.5q37 25 37 101q0 124 -70 175.5t-205 51.5q-134 0 -204 -60.5t-82 -187.5h-123q8 169 118.5 261.5t305.5 92.5q182 0 284.5 -78t102.5 -225v-573v-7q0 -23 0.5 -34t4 -26.5 t10.5 -22t20.5 -12t33.5 -5.5q27 0 50 6v-98q-47 -16 -103 -16q-36 0 -62 11.5t-40.5 28t-22.5 44t-10 51.5t-2 57q-132 -211 -397 -211q-161 0 -252.5 78.5t-91.5 216.5zM201 279q0 -92 65.5 -146.5t175.5 -54.5q150 0 254.5 88.5t104.5 234.5v172q-18 -20 -60 -33.5 t-78 -19.5t-118 -16q-20 -3 -31 -4q-35 -5 -59.5 -9t-60 -12.5t-60 -19t-51.5 -27t-43.5 -37.5t-27.5 -50.5t-11 -65.5z" />
<glyph unicode="b" horiz-adv-x="1175" d="M125 0v1458h125v-604q47 111 146.5 171t228.5 60q215 0 343 -151t128 -406q0 -258 -129 -408.5t-349 -150.5q-135 0 -233 60t-143 176v-205h-117zM246 526q0 -207 98 -329.5t264 -122.5q163 0 260 123t97 329q0 207 -97.5 329t-261.5 122q-166 0 -263 -122t-97 -329z" />
<glyph unicode="c" horiz-adv-x="1062" d="M74 516q0 258 134 412.5t357 154.5q183 0 296.5 -95.5t135.5 -266.5h-131q-25 125 -101.5 190.5t-197.5 65.5q-165 0 -262.5 -122.5t-97.5 -328.5t94 -328t254 -122q132 0 217 79.5t105 221.5h129q-27 -185 -143 -296.5t-302 -111.5q-221 0 -354 149t-133 398z" />
<glyph unicode="d" horiz-adv-x="1175" d="M78 526q0 254 128 405.5t343 151.5q129 0 227 -57t148 -170v602h125v-1458h-117v207q-46 -117 -146 -177.5t-233 -60.5q-218 0 -346.5 150.5t-128.5 406.5zM207 528q0 -209 97 -331.5t261 -122.5q169 0 266 120.5t97 331.5q0 88 -21.5 166.5t-64 143.5t-114.5 103 t-165 38q-163 0 -259.5 -122.5t-96.5 -326.5z" />
<glyph unicode="e" horiz-adv-x="1062" d="M66 514q0 250 134.5 408.5t346.5 158.5q91 0 167.5 -29t130.5 -80t91.5 -121t55.5 -150.5t18 -168.5v-36h-813q0 -68 12.5 -129.5t40 -116t68 -94.5t101 -63t134.5 -23q126 0 208 70t113 206h125q-34 -178 -150.5 -279.5t-299.5 -101.5q-220 0 -351.5 149.5t-131.5 399.5 zM197 600h684q-11 175 -100.5 275t-237.5 100q-83 0 -146.5 -30t-103.5 -84t-63 -118.5t-33 -142.5z" />
<glyph unicode="f" horiz-adv-x="530" d="M10 948v105h180v121q0 151 61 222.5t208 71.5q38 0 98 -8v-108q-43 6 -86 6q-32 0 -56 -5t-40.5 -12t-27 -23t-16.5 -28t-8.5 -37.5t-3 -41.5t-0.5 -49v-5v-104h211v-105h-211v-948h-129v948h-180z" />
<glyph unicode="g" d="M74 535q0 247 128 396.5t339 149.5q248 0 358 -227v199h117v-996q0 -238 -120.5 -354.5t-350.5 -116.5q-193 0 -305.5 83t-122.5 235h129q30 -217 305 -217q187 0 265.5 95.5t78.5 285.5v176q-107 -232 -365 -232q-209 0 -332.5 142.5t-123.5 380.5zM203 545 q0 -193 92.5 -307.5t247.5 -114.5q161 0 255.5 117.5t94.5 318.5q0 188 -94 300t-252 112t-251 -115t-93 -311z" />
<glyph unicode="h" horiz-adv-x="1099" d="M123 0v1458h127q0 -524 -2 -604q57 115 145.5 170t218.5 55q182 0 275.5 -99.5t93.5 -283.5v-696h-129v680q0 139 -67 215t-203 76q-87 0 -152.5 -32.5t-104 -91t-57 -131.5t-18.5 -161v-555h-127z" />
<glyph unicode="i" horiz-adv-x="378" d="M125 0v1053h129v-1053h-129zM125 1253v211h129v-211h-129z" />
<glyph unicode="j" horiz-adv-x="378" d="M-57 -291q23 -2 49 -2q34 0 51.5 2.5t38 13t29.5 32.5t15.5 62t6.5 101v1135h127v-1123q0 -49 -1.5 -82t-7 -71.5t-16.5 -62.5t-29.5 -48.5t-45 -38t-65.5 -22t-89 -8.5q-19 0 -63 6v106zM133 1255v211h127v-211h-127z" />
<glyph unicode="k" horiz-adv-x="1024" d="M127 0v1458h123v-919l588 514h172l-451 -387l481 -666h-161l-420 578l-209 -179v-399h-123z" />
<glyph unicode="l" horiz-adv-x="378" d="M127 0v1458h127v-1458h-127z" />
<glyph unicode="m" horiz-adv-x="1705" d="M125 0v1053h121v-185q67 106 149 159.5t201 53.5q115 0 193.5 -53.5t107.5 -150.5q52 98 141 151t209 53q68 0 127.5 -19t107.5 -57.5t75.5 -103.5t27.5 -149v-752h-129v717q0 123 -62 186.5t-182 63.5q-140 0 -216 -87t-76 -235v-645h-127v707q0 126 -54.5 193 t-177.5 67q-104 0 -174.5 -50.5t-101.5 -131.5t-31 -187v-598h-129z" />
<glyph unicode="n" horiz-adv-x="1099" d="M123 0v1053h121v-199q65 116 152 171.5t220 55.5q164 0 264.5 -90t100.5 -274v-717h-129v676q0 293 -268 293q-151 0 -241.5 -101.5t-90.5 -298.5v-569h-129z" />
<glyph unicode="o" d="M70 526q0 254 136 405.5t365 151.5q227 0 361.5 -151.5t134.5 -409.5q0 -255 -133.5 -404t-362.5 -149q-230 0 -365.5 151t-135.5 406zM201 526q0 -208 99.5 -329t272.5 -121q167 0 266 121.5t99 326.5q0 206 -100 328.5t-269 122.5q-167 0 -267.5 -122.5t-100.5 -326.5z " />
<glyph unicode="p" horiz-adv-x="1175" d="M129 -393v1446h117v-203q114 233 377 233q215 0 345 -153.5t130 -407.5q0 -250 -129.5 -402.5t-341.5 -152.5q-129 0 -224 57.5t-149 170.5v-588h-125zM250 524q0 -207 97 -327.5t263 -120.5q161 0 259 122t98 324q0 207 -98 331t-263 124q-166 0 -261 -120.5t-95 -332.5 z" />
<glyph unicode="q" horiz-adv-x="1175" d="M78 522q0 258 129.5 410.5t349.5 152.5q263 0 371 -233v201h119v-1444h-127q0 420 2 588q-108 -226 -377 -226q-215 0 -341 148.5t-126 402.5zM207 522q0 -204 96 -324t260 -120q166 0 263.5 121.5t97.5 330.5q0 208 -96 328.5t-263 120.5q-164 0 -261 -123.5t-97 -333.5 z" />
<glyph unicode="r" horiz-adv-x="645" d="M139 0v1053h121v-252q66 146 154.5 205.5t247.5 62.5v-131q-8 0 -20 1t-15 1q-119 0 -212 -68.5t-124 -181.5q-25 -98 -25 -260v-430h-127z" />
<glyph unicode="s" horiz-adv-x="985" d="M66 344h124q0 -131 82 -200.5t230 -69.5q129 0 207.5 56.5t78.5 148.5q0 39 -18 71t-43 51.5t-64 36t-70 24.5t-71 18q-15 3 -22 5q-17 4 -53 12t-56 12.5t-54 14t-54.5 18t-49.5 22t-46.5 27.5t-37 34t-30.5 43t-18 52.5t-7 63.5q0 138 103.5 217.5t283.5 79.5 t289 -86.5t109 -249.5h-125q-17 230 -285 230q-114 0 -180 -47t-66 -127q0 -24 4 -44t16 -36.5t22 -28t34.5 -23.5t41 -19t53.5 -16.5t59.5 -15t70.5 -16.5t77 -18t75 -22t75 -30t63.5 -39t54 -51.5t33 -66t13.5 -84.5q0 -145 -115 -234.5t-302 -89.5q-203 0 -315.5 98 t-116.5 279z" />
<glyph unicode="t" horiz-adv-x="606" d="M12 948v105h187v321h127v-321h217v-105h-217v-667q0 -91 11 -119q29 -56 122 -58q19 0 84 7v-111q-63 -8 -113 -8q-189 0 -219 121q-12 52 -12 231v604h-187z" />
<glyph unicode="u" horiz-adv-x="1099" d="M121 352v701h129v-645q0 -164 60 -245t206 -81q153 0 241.5 111.5t88.5 277.5v582h127v-1053h-119v195q-117 -226 -371 -226q-169 0 -265.5 97.5t-96.5 285.5z" />
<glyph unicode="v" horiz-adv-x="948" d="M8 1053h137l246 -641q18 -47 96 -285q65 205 97 295l227 631h129l-387 -1053h-139z" />
<glyph unicode="w" horiz-adv-x="1517" d="M14 1053h140l200 -641q16 -48 74 -273q13 52 21.5 89.5t11.5 52t11.5 46t25.5 89.5l188 637h148l200 -668q20 -67 60 -246q33 140 63 242l211 672h133l-342 -1053h-139l-209 692q-23 80 -53 207q-30 -122 -53 -207l-205 -692h-144z" />
<glyph unicode="x" horiz-adv-x="985" d="M2 0l408 553l-377 500h164l227 -308q11 -15 32.5 -49t32.5 -49q13 20 23 34.5t13 19.5t10.5 15.5t21.5 28.5l234 308h151l-373 -492l416 -561h-164l-280 385q-7 11 -23.5 35t-30.5 45q-9 -14 -53 -78l-278 -387h-154z" />
<glyph unicode="y" horiz-adv-x="948" d="M-2 1053h141l285 -725q13 -35 20 -53.5t10 -28t11.5 -38t21.5 -67.5q55 176 64 201l260 711h131l-414 -1092q-23 -62 -37.5 -98t-34.5 -80t-36 -67.5t-38 -49.5t-45.5 -37.5t-53.5 -19.5t-66 -8q-51 0 -113 10v113q61 -15 93 -15q19 0 35.5 4.5t29.5 9.5t26.5 18 t22.5 22.5t21 30.5t18.5 33t18 40.5t16.5 42t18 48.5t19 50z" />
<glyph unicode="z" horiz-adv-x="948" d="M33 0v104l684 840h-639v109h807v-90l-697 -854h725v-109h-880z" />
<glyph unicode="{" horiz-adv-x="681" d="M8 518v72q153 0 219 79.5t66 227.5v156q0 109 18 183t61 129t116.5 82.5t183.5 33.5v-72q-79 -4 -130 -26t-79 -64.5t-38.5 -95.5t-10.5 -131v-134q0 -67 -4.5 -115t-20.5 -101t-44 -88t-77 -62t-118 -37q60 -11 105 -30t73 -49t46 -61.5t26.5 -78.5t11 -87t2.5 -99v-113 q0 -87 9.5 -142.5t37 -100.5t79 -67t132.5 -26v-72q-117 7 -192 37t-116 89.5t-56 135.5t-15 193v129q0 160 -61.5 225t-223.5 80z" />
<glyph unicode="|" horiz-adv-x="454" d="M172 -438v2048h111v-2048h-111z" />
<glyph unicode="}" horiz-adv-x="681" d="M8 -299q81 4 132.5 26t79 67t37 100.5t9.5 142.5v113q0 59 2.5 99t11 87t26.5 78.5t46 61.5t73 49t105 30q-69 10 -118 37t-77 62t-44 88t-20.5 101t-4.5 115v134q0 78 -10.5 131t-38.5 95.5t-79 64.5t-130 26v72q110 -6 183.5 -33.5t116.5 -82.5t61 -129t18 -183v-156 q0 -148 66 -227.5t219 -79.5v-72q-162 -15 -223.5 -80t-61.5 -225v-129q0 -117 -15 -193t-56 -135.5t-116 -89.5t-192 -37v72z" />
<glyph unicode="~" horiz-adv-x="1228" d="M82 373q8 45 19 81t30.5 72t45 60.5t65 39.5t88.5 15q20 0 41.5 -2.5t49.5 -9t45 -10.5t51.5 -15.5l43.5 -14.5t47 -17l39 -13q7 -3 58 -21.5t73 -26t61 -16t68 -8.5q70 0 112.5 48t57.5 120h74q-5 -52 -21.5 -98.5t-45 -84t-74 -59.5t-101.5 -22q-40 0 -96.5 13 t-86 22.5t-95.5 32.5q-20 7 -70.5 25t-82.5 28.5t-75 20.5t-73 10q-64 0 -110.5 -47.5t-57.5 -122.5h-80z" />
<glyph unicode="&#xa3;" d="M88 80q229 174 229 379q0 100 -55 213h-168v67h127q-41 73 -58 107t-35.5 96t-18.5 121q0 175 129.5 284t336.5 109q231 0 354.5 -127t123.5 -356h-127q-4 180 -95.5 275t-257.5 95q-149 0 -242 -79t-93 -205q0 -34 5.5 -65.5t22 -70.5t24.5 -55.5t36.5 -67.5t33.5 -61 h328v-67h-291q45 -98 45 -189q0 -112 -60 -204.5t-163 -180.5q50 24 75.5 34.5t66 20t83.5 9.5q80 0 172 -31q10 -3 43.5 -15t50 -17t43.5 -10t50 -5q129 0 241 106l66 -96q-56 -58 -136.5 -91.5t-164.5 -33.5q-29 0 -53.5 2.5t-53 10t-42 11.5t-52 17.5t-51.5 18.5 q-91 30 -166 30q-46 0 -87 -12.5t-67.5 -27t-74.5 -46.5z" />
<glyph unicode="&#xa4;" d="M102 1126l70 70l129 -131q118 92 268 92q143 0 269 -90l129 127l69 -70l-129 -129q92 -132 92 -268q0 -141 -94 -264l131 -133l-69 -70l-131 133q-116 -96 -267 -96q-142 0 -266 94l-129 -129l-70 70l129 129q-94 126 -94 268q0 144 92 266zM246 727q0 -134 95 -229 t228 -95t228.5 95.5t95.5 228.5q0 135 -95 229.5t-229 94.5t-228.5 -94.5t-94.5 -229.5z" />
<glyph unicode="&#xa6;" horiz-adv-x="454" d="M172 -182v512h111v-512h-111zM172 842v512h111v-512h-111z" />
<glyph unicode="&#xa7;" d="M88 659q0 105 60.5 181.5t162.5 113.5q-54 49 -78 99.5t-24 113.5q0 131 98 215t252 84q175 0 272.5 -94.5t100.5 -267.5h-125q-6 120 -67.5 188t-182.5 68q-98 0 -159.5 -51.5t-61.5 -134.5q0 -30 6.5 -55t24 -48t34 -39.5t52.5 -39.5t61 -37.5t78.5 -44.5t87.5 -50 q141 -82 184 -112q165 -118 179 -260q1 -14 1 -29q0 -98 -58.5 -175t-164.5 -120q119 -101 119 -234q0 -135 -103 -221t-264 -86q-182 0 -284 101.5t-105 275.5h127q6 -132 74 -201t193 -69q103 0 168 54t65 140q0 45 -19.5 82.5t-64.5 74.5t-90 66t-125 76q-22 12 -33 19 q-19 11 -64 36t-68.5 38.5t-63.5 40t-62.5 46t-51.5 50.5t-44 60t-26 67t-11 79zM211 672q0 -67 47 -122.5t160 -123.5q31 -19 102.5 -60t123 -73.5t97.5 -65.5q86 31 133.5 86.5t47.5 126.5q0 41 -20 80.5t-56.5 73t-67.5 56t-73 48.5q-67 41 -137 80t-109 62t-74 51 q-80 -37 -127 -89t-47 -130z" />
<glyph unicode="&#xa9;" horiz-adv-x="1638" d="M68 723q0 153 59.5 292.5t159.5 240t239.5 160t292.5 59.5t292 -59.5t240 -160t160.5 -240t59.5 -292.5q0 -152 -59.5 -291t-160.5 -239.5t-240 -160t-292 -59.5t-292.5 59.5t-239.5 160t-159.5 239t-59.5 291.5zM139 725q0 -139 54 -265t145 -217t217 -144.5t264 -53.5 t264 54t217 145t145 216.5t54 262.5q0 138 -54 264t-145 217t-217 145t-264 54t-264 -53.5t-217 -144.5t-145 -216.5t-54 -263.5zM434 729q0 189 111 313.5t280 124.5q141 0 241 -84t110 -211h-91q-19 97 -87 154t-167 57q-127 0 -207.5 -97t-80.5 -251q0 -158 84.5 -259 t216.5 -101q93 0 159.5 52t88.5 142h90q-17 -122 -112.5 -200t-227.5 -78q-175 0 -291.5 125t-116.5 313z" />
<glyph unicode="&#xab;" horiz-adv-x="872" d="M121 481v127l274 256v-133l-192 -186l192 -183v-137zM451 479v127l274 260v-135l-193 -186l193 -185v-135z" />
<glyph unicode="&#xac;" horiz-adv-x="1228" d="M104 655v99h1018v-473h-102v374h-916z" />
<glyph unicode="&#xad;" horiz-adv-x="757" d="M123 500v125h514v-125h-514z" />
<glyph unicode="&#xae;" horiz-adv-x="819" d="M35 1106q0 155 109.5 265t263.5 110q155 0 264.5 -110t109.5 -265q0 -157 -109.5 -267t-264.5 -110q-154 0 -263.5 110.5t-109.5 266.5zM90 1104q0 -131 94 -225.5t224 -94.5q132 0 225.5 94.5t93.5 225.5q0 132 -93.5 226.5t-225.5 94.5q-131 0 -224.5 -94.5 t-93.5 -226.5zM264 920v376h142q172 0 172 -110q0 -66 -70 -90q35 -17 49 -44t14 -75q0 -31 13 -57h-68q-7 20 -7.5 41.5t-2.5 29.5q-4 24 -11 39t-13.5 23t-24.5 11.5t-29.5 4t-42.5 0.5h-57v-149h-64zM328 1122h73q59 0 86 15t27 49q0 20 -9.5 33t-29 17.5t-32.5 5.5 t-36 1h-8h-71v-121z" />
<glyph unicode="&#xb0;" horiz-adv-x="819" d="M106 1155q0 126 89 214.5t215 88.5t214.5 -88.5t88.5 -214.5t-88.5 -214.5t-214.5 -88.5t-215 88.5t-89 214.5zM205 1155q0 -86 60 -145.5t145 -59.5t144.5 59.5t59.5 145.5q0 85 -59.5 145t-144.5 60t-145 -60t-60 -145z" />
<glyph unicode="&#xb1;" horiz-adv-x="1228" d="M104 -16v98h1018v-98h-1018zM104 541v98h455v362h109v-362h454v-98h-454v-365h-109v365h-455z" />
<glyph unicode="&#xb5;" horiz-adv-x="1099" d="M121 -424v1477h129v-625q0 -53 3.5 -92.5t13 -81.5t28 -71t47.5 -53t72.5 -36t101.5 -12q75 0 133 24.5t94.5 65t60 97.5t33 116t9.5 127v541h127v-1053h-119v195q-62 -116 -150.5 -171t-220.5 -55q-57 0 -120 21t-111 51v-465h-131z" />
<glyph unicode="&#xb6;" horiz-adv-x="1228" d="M100 987q0 155 70 263t186 158t269 50h487v-90h-108v-1722h-111v1722h-258v-1722h-111v893q-198 9 -311 128t-113 320z" />
<glyph unicode="&#xb7;" horiz-adv-x="569" d="M203 500v211h168v-211h-168z" />
<glyph unicode="&#xbb;" horiz-adv-x="872" d="M147 227v133l193 187l-193 184v133l273 -254v-125zM477 227v133l193 185l-193 182v139l275 -260v-123z" />
<glyph unicode="&#xf7;" horiz-adv-x="1228" d="M104 442v101h1018v-101h-1018zM541 27v204h143v-204h-143zM541 754v204h143v-204h-143z" />
<glyph unicode="&#x401;" horiz-adv-x="1214" d="M147 0v1458h1012v-119h-872v-526h817v-117h-817v-577h880v-119h-1020zM422 1597v209h135v-209h-135zM795 1597v209h133v-209h-133z" />
<glyph unicode="&#x402;" horiz-adv-x="1536" d="M-10 1337v121h1159v-121h-551v-659h6q49 103 148.5 157t220.5 54q212 0 341.5 -151t129.5 -388q0 -170 -62.5 -306t-186 -217t-288.5 -81v121q396 26 396 485q0 188 -90.5 304t-251.5 116q-175 0 -269 -110.5t-94 -319.5v-342h-139v1337h-469z" />
<glyph unicode="&#x403;" horiz-adv-x="1062" d="M145 0v1458h904v-121h-766v-1337h-138zM410 1559l202 288h158l-258 -288h-102z" />
<glyph unicode="&#x404;" horiz-adv-x="1441" d="M80 727q0 155 45 293t128.5 243.5t214.5 167.5t292 62q106 0 207 -32.5t183.5 -92t138 -150t67.5 -198.5h-139q-34 163 -158 257.5t-303 94.5q-223 0 -368 -152.5t-167 -406.5h791v-117h-795q9 -279 154 -444.5t381 -165.5q198 0 321 115t158 307h137 q-35 -249 -202.5 -395t-417.5 -146q-303 0 -485.5 207.5t-182.5 552.5z" />
<glyph unicode="&#x405;" horiz-adv-x="1290" d="M80 469v12h133q0 -198 122 -298.5t337 -100.5q189 0 297 80t108 221q0 33 -6.5 60.5t-16 50t-30 42.5t-40.5 35.5t-55 31t-65.5 27t-80.5 25.5t-92 24.5t-107 25.5q-179 41 -252 73q-160 71 -194 213q-11 44 -11 96q0 185 136.5 292.5t371.5 107.5q237 0 378.5 -114.5 t151.5 -334.5h-135q-9 163 -116 247.5t-289 84.5q-172 0 -268.5 -72t-96.5 -202q0 -31 6.5 -58t15.5 -47.5t29 -39.5t36 -32t48 -26.5t53 -21.5t63 -18.5t67 -16.5t75 -17q64 -14 104.5 -23.5t95 -24.5t88.5 -28t76 -33t67.5 -40.5t52 -49t41 -61t23.5 -73.5t9 -89 q0 -91 -31.5 -165t-83.5 -122t-123.5 -80.5t-148.5 -46.5t-161 -14q-272 0 -427 133.5t-155 366.5z" />
<glyph unicode="&#x406;" horiz-adv-x="454" d="M158 0v1458h139v-1458h-139z" />
<glyph unicode="&#x407;" horiz-adv-x="454" d="M-25 1597v209h134v-209h-134zM158 0v1458h139v-1458h-139zM346 1597v209h133v-209h-133z" />
<glyph unicode="&#x408;" horiz-adv-x="1024" d="M49 414q0 28 2 57h133v-43q0 -84 11 -142.5t41 -107t87.5 -72.5t145.5 -24q70 0 120.5 18.5t80 48.5t46 77.5t22 94.5t5.5 111v1026h138v-1063q0 -206 -100.5 -317t-311.5 -111q-222 0 -321 112.5t-99 334.5z" />
<glyph unicode="&#x409;" horiz-adv-x="2048" d="M20 -2v115q19 -11 61.5 -18t76.5 -7q55 0 90.5 40t58.5 146.5t29 288.5l29 895h794v-614h395q201 0 318 -114t117 -308t-117 -308t-318 -114h-534v1339h-524l-27 -858q-14 -512 -307 -512q-75 0 -142 29zM1159 119h365q153 0 239 80.5t86 222.5t-86 222.5t-239 80.5h-365 v-606z" />
<glyph unicode="&#x40a;" horiz-adv-x="2048" d="M147 0v1458h140v-614h714v614h140v-614h415q201 0 318 -114t117 -308t-117 -308t-318 -114h-555v725h-714v-725h-140zM1141 119h385q153 0 239 80.5t86 222.5t-86 222.5t-239 80.5h-385v-606z" />
<glyph unicode="&#x40b;" horiz-adv-x="1536" d="M-10 1339v119h1159v-119h-551v-538q61 32 161.5 60t162.5 28q121 0 209.5 -26t137.5 -65t78 -98t37.5 -111.5t8.5 -119.5v-469h-140v461q0 44 -4.5 78.5t-23 80t-51 75.5t-93.5 51.5t-145 21.5q-80 0 -177 -28.5t-161 -65.5v-674h-139v1339h-469z" />
<glyph unicode="&#x40c;" horiz-adv-x="1327" d="M145 0v1458h138v-784q91 87 96 92l754 692h184l-658 -596l691 -862h-179l-610 768l-278 -254v-514h-138zM532 1559l203 288h158l-258 -288h-103z" />
<glyph unicode="&#x40e;" horiz-adv-x="1214" d="M-14 1458h149l477 -973l473 973h148l-582 -1204q-36 -74 -71 -125.5t-67.5 -82.5t-71 -48.5t-73 -23t-81.5 -5.5q-68 0 -152 37v119q62 -37 164 -37q70 0 121.5 55t95.5 146l19 39zM332 1815h80q9 -78 65 -123t146 -45q88 0 145 44t72 124h80q-23 -130 -98.5 -198.5 t-200.5 -68.5q-127 0 -200.5 68.5t-88.5 198.5z" />
<glyph unicode="&#x40f;" horiz-adv-x="1441" d="M147 0v1458h140v-1339h868v1339h139v-1458h-503v-393h-140v393h-504z" />
<glyph unicode="&#x410;" horiz-adv-x="1290" d="M-18 0l589 1462h154l582 -1462h-154l-176 459h-668l-178 -459h-149zM352 571h582l-287 760z" />
<glyph unicode="&#x411;" horiz-adv-x="1366" d="M147 0v1458h1010v-119h-870v-495h551q201 0 317.5 -114t116.5 -308t-116.5 -308t-317.5 -114h-691zM287 119h520q153 0 239.5 81t86.5 222t-86.5 222t-239.5 81h-520v-606z" />
<glyph unicode="&#x412;" horiz-adv-x="1366" d="M147 0v1458h625q93 0 173 -21t145 -63t102 -114t37 -166q0 -117 -73.5 -207.5t-178.5 -114.5q64 -12 117 -37.5t97.5 -67t69.5 -105t25 -144.5q0 -103 -39 -184t-107 -131.5t-156.5 -76.5t-190.5 -26h-646zM283 119h436q69 0 123.5 5.5t114 24.5t99 50t65.5 86.5 t26 130.5q0 72 -27 125t-68 83t-102.5 47.5t-116 23t-122.5 5.5h-428v-581zM283 813h462q67 0 125 13t110 41.5t82 81.5t30 126q0 66 -22.5 115t-58 77t-88 45t-102.5 22t-112 5h-426v-526z" />
<glyph unicode="&#x413;" horiz-adv-x="1062" d="M145 0v1458h904v-119h-766v-1339h-138z" />
<glyph unicode="&#x414;" horiz-adv-x="1441" d="M12 119h133q45 85 80.5 180.5t58 177t38.5 186.5t23.5 175.5t11.5 178t4.5 160.5t0.5 155v15v13v14v84h906v-1339h153v-512h-139v393h-1130v-393h-140v512zM293 119h835v1220h-626v-26q0 -100 -0.5 -150t-4 -157.5t-11 -176.5t-22.5 -173.5t-37 -185.5t-56 -175t-78 -176 z" />
<glyph unicode="&#x415;" horiz-adv-x="1214" d="M147 0v1458h1012v-119h-872v-526h817v-117h-817v-577h880v-119h-1020z" />
<glyph unicode="&#x416;" horiz-adv-x="2027" d="M-16 0l657 831l-606 627h188l721 -766v766h139v-766l721 766h189l-607 -627l658 -831h-180l-576 729l-205 -213v-516h-139v516l-205 213l-575 -729h-180z" />
<glyph unicode="&#x417;" horiz-adv-x="1290" d="M82 469v12h133q0 -198 122 -298.5t337 -100.5q179 0 287 99.5t108 244.5q0 126 -95 204.5t-237 78.5h-233v118h233q124 0 208.5 67t84.5 189q0 146 -98 219.5t-256 73.5q-179 0 -291 -85.5t-121 -246.5h-135q10 219 157.5 334t385.5 115q105 0 193.5 -24t157 -71.5 t107.5 -124.5t39 -177q0 -109 -64.5 -194.5t-150.5 -115.5v-6q119 -32 186.5 -121.5t67.5 -230.5q0 -57 -16.5 -117t-57.5 -122t-101 -110.5t-155.5 -79t-213.5 -30.5q-272 0 -427 133.5t-155 366.5z" />
<glyph unicode="&#x418;" horiz-adv-x="1441" d="M147 0v1458h140v-1308l827 1308h180v-1458h-139v1309l-827 -1309h-181z" />
<glyph unicode="&#x419;" horiz-adv-x="1441" d="M147 0v1458h140v-1308l827 1308h180v-1458h-139v1309l-827 -1309h-181zM428 1815h80q9 -78 65 -123t146 -45q88 0 145 44t72 124h80q-23 -130 -98.5 -198.5t-200.5 -68.5q-127 0 -200.5 68.5t-88.5 198.5z" />
<glyph unicode="&#x41a;" horiz-adv-x="1327" d="M145 0v1458h138v-784l850 784h184l-658 -596l691 -862h-179l-610 768l-278 -254v-514h-138z" />
<glyph unicode="&#x41b;" horiz-adv-x="1366" d="M16 -2v115q19 -11 64 -18t80 -7q55 0 90.5 40t58.5 146.5t29 288.5l29 895h858v-1458h-140v1339h-587l-27 -858q-14 -512 -307 -512q-81 0 -148 29z" />
<glyph unicode="&#x41c;" horiz-adv-x="1705" d="M145 0v1458h189l424 -1040q11 -26 100 -275q12 32 44 126.5t52 144.5l418 1044h191v-1458h-133v881q0 212 16 458q-49 -148 -96 -264l-430 -1075h-125l-437 1063q-41 98 -96 268q17 -255 17 -446v-885h-134z" />
<glyph unicode="&#x41d;" horiz-adv-x="1441" d="M145 0v1458h140v-635h870v635h139v-1458h-139v705h-870v-705h-140z" />
<glyph unicode="&#x41e;" horiz-adv-x="1517" d="M72 729q0 225 85.5 399t241.5 269.5t359 95.5q306 0 497 -213t191 -555q0 -341 -190.5 -550.5t-499.5 -209.5q-307 0 -495.5 210.5t-188.5 553.5zM211 733q0 -293 149.5 -470t397.5 -177q247 0 398 176t151 465t-152 467t-399 178q-244 0 -394.5 -176.5t-150.5 -462.5z " />
<glyph unicode="&#x41f;" horiz-adv-x="1441" d="M145 0v1458h1149v-1458h-139v1339h-870v-1339h-140z" />
<glyph unicode="&#x420;" horiz-adv-x="1290" d="M154 0v1458h624q210 0 334.5 -105t124.5 -304q0 -208 -125 -317t-338 -109h-481v-623h-139zM293 739h442q78 0 142 16.5t114.5 51t78.5 93.5t28 138q0 152 -92.5 226.5t-255.5 74.5h-457v-600z" />
<glyph unicode="&#x421;" horiz-adv-x="1441" d="M80 727q0 155 45 293t128.5 243.5t214.5 167.5t292 62q106 0 207 -32.5t183.5 -92t138 -150t67.5 -198.5h-139q-34 163 -158 257.5t-303 94.5q-243 0 -391 -177.5t-148 -467.5t146 -465.5t389 -175.5q212 0 336.5 130t148.5 343h137q-23 -270 -193.5 -431t-432.5 -161 q-303 0 -485.5 207.5t-182.5 552.5z" />
<glyph unicode="&#x422;" d="M-12 1339v119h1163v-119h-512v-1339h-139v1339h-512z" />
<glyph unicode="&#x423;" horiz-adv-x="1214" d="M-14 1458h149l477 -973l473 973h148l-582 -1204q-36 -74 -71 -125.5t-67.5 -82.5t-71 -48.5t-73 -23t-81.5 -5.5q-68 0 -152 37v119q62 -37 164 -37q70 0 121.5 55t95.5 146l19 39z" />
<glyph unicode="&#x424;" horiz-adv-x="1536" d="M61 741q0 107 34 198.5t93 156.5t139.5 111t174.5 68.5t196 22.5v160h140v-160q102 0 196 -22.5t174.5 -68.5t139.5 -111t93 -156.5t34 -198.5q0 -138 -52.5 -248t-142 -178t-202.5 -103.5t-240 -35.5v-176h-140v176q-127 0 -240 35.5t-202.5 103.5t-142 178t-52.5 248z M199 741q0 -88 25.5 -160t70 -122t108 -86t136.5 -55t159 -25v887q-110 -5 -198.5 -32t-157 -78.5t-106 -134.5t-37.5 -194zM838 293q86 6 159 25t136.5 55t108 86t70 122t25.5 160q0 111 -37.5 194t-106 134.5t-157 78.5t-198.5 32v-887z" />
<glyph unicode="&#x425;" horiz-adv-x="1175" d="M-29 0l531 750l-498 708h164l326 -467q18 -26 47.5 -75.5t42.5 -69.5q45 63 94 147l334 465h153l-497 -708l526 -750h-168l-364 522q-43 61 -55 84.5t-23 40.5q-11 -11 -26.5 -33.5t-32.5 -50.5t-25 -39l-369 -524h-160z" />
<glyph unicode="&#x426;" horiz-adv-x="1478" d="M147 0v1458h140v-1339h868v1339h139v-1339h154v-512h-139v393h-1162z" />
<glyph unicode="&#x427;" horiz-adv-x="1310" d="M104 1055v403h140v-395q0 -44 4.5 -78.5t23 -80t51 -75.5t93.5 -51.5t145 -21.5q116 0 249.5 19.5t213.5 39.5v643h139v-1458h-139v696q-74 -18 -217 -39.5t-232 -21.5q-121 0 -209.5 26t-137.5 65t-78 98t-37.5 111.5t-8.5 119.5z" />
<glyph unicode="&#x428;" horiz-adv-x="2138" d="M147 0v1458h140v-1339h712v1339h140v-1339h712v1339h140v-1458h-1844z" />
<glyph unicode="&#x429;" horiz-adv-x="2174" d="M147 0v1458h140v-1339h712v1339h140v-1339h712v1339h140v-1339h153v-512h-139v393h-1858z" />
<glyph unicode="&#x42a;" horiz-adv-x="1607" d="M-10 1339v119h614v-614h510q201 0 317.5 -114t116.5 -308t-116.5 -308t-317.5 -114h-649v1339h-475zM604 119h479q153 0 239.5 81t86.5 222t-86.5 222t-239.5 81h-479v-606z" />
<glyph unicode="&#x42b;" horiz-adv-x="1722" d="M147 0v1458h140v-614h510q201 0 317.5 -114t116.5 -308t-116.5 -308t-317.5 -114h-650zM287 119h479q153 0 239.5 81t86.5 222t-86.5 222t-239.5 81h-479v-606zM1436 0v1458h139v-1458h-139z" />
<glyph unicode="&#x42c;" horiz-adv-x="1290" d="M147 0v1458h140v-614h510q201 0 317.5 -114t116.5 -308t-116.5 -308t-317.5 -114h-650zM287 119h479q153 0 239.5 81t86.5 222t-86.5 222t-239.5 81h-479v-606z" />
<glyph unicode="&#x42d;" horiz-adv-x="1441" d="M74 508h137q35 -192 158 -307t321 -115q236 0 381 165.5t154 444.5h-774v117h770q-22 254 -167 406.5t-368 152.5q-179 0 -303 -94.5t-158 -257.5h-139q12 108 67.5 198.5t138 150t183.5 92t207 32.5q161 0 292 -62t214.5 -167.5t128.5 -243.5t45 -293 q0 -345 -182.5 -552.5t-485.5 -207.5q-250 0 -417.5 146t-202.5 395z" />
<glyph unicode="&#x42e;" horiz-adv-x="2048" d="M143 0v1458h140v-635h323q26 303 211.5 486.5t470.5 183.5q306 0 497 -213t191 -555q0 -341 -190.5 -550.5t-499.5 -209.5q-300 0 -488 204t-196 536h-319v-705h-140zM741 733q0 -293 149.5 -470t397.5 -177q247 0 398 176t151 465t-152 467t-399 178 q-244 0 -394.5 -176.5t-150.5 -462.5z" />
<glyph unicode="&#x42f;" horiz-adv-x="1290" d="M8 0l502 647q-194 6 -308 113.5t-114 294.5q0 191 119 297t323 106h613v-1458h-139v647h-314l-502 -647h-180zM227 1055q0 -139 89 -214t245 -75h443v573h-443q-157 0 -245.5 -72.5t-88.5 -211.5z" />
<glyph unicode="&#x430;" horiz-adv-x="1062" d="M66 266q0 285 391 326q21 2 58 5.5t53.5 5t44.5 4.5t41.5 5.5t33 6t31 7.5t24 9.5t21.5 11.5q37 25 37 101q0 124 -70 175.5t-205 51.5q-134 0 -204 -60.5t-82 -187.5h-123q8 169 118.5 261.5t305.5 92.5q182 0 284.5 -78t102.5 -225v-573v-7q0 -23 0.5 -34t4 -26.5 t10.5 -22t20.5 -12t33.5 -5.5q27 0 50 6v-98q-47 -16 -103 -16q-36 0 -62 11.5t-40.5 28t-22.5 44t-10 51.5t-2 57q-132 -211 -397 -211q-161 0 -252.5 78.5t-91.5 216.5zM201 279q0 -92 65.5 -146.5t175.5 -54.5q150 0 254.5 88.5t104.5 234.5v172q-18 -20 -60 -33.5 t-78 -19.5t-118 -16q-20 -3 -31 -4q-35 -5 -59.5 -9t-60 -12.5t-60 -19t-51.5 -27t-43.5 -37.5t-27.5 -50.5t-11 -65.5z" />
<glyph unicode="&#x431;" d="M88 606q0 408 131 611q69 107 169.5 156.5t254.5 58.5l98 6q79 4 109.5 16t42.5 39h143q-17 -91 -79.5 -126t-204.5 -44l-156 -10q-178 -12 -273.5 -130t-129.5 -362h6q53 107 158.5 172.5t232.5 65.5q214 0 345.5 -146.5t131.5 -394.5q0 -247 -134.5 -398t-354.5 -151 q-112 0 -199 35.5t-141 94t-88.5 143t-48 172.5t-13.5 192zM217 518q0 -194 101.5 -317t259.5 -123q157 0 258.5 123t101.5 317q0 191 -100.5 311.5t-253.5 120.5q-164 0 -265.5 -118t-101.5 -314z" />
<glyph unicode="&#x432;" horiz-adv-x="1062" d="M121 0v1053h493q162 0 250 -64.5t88 -185.5q0 -93 -47.5 -155t-134.5 -87v-4q107 -19 165 -84.5t58 -177.5q0 -142 -98 -218.5t-281 -76.5h-493zM250 109h350q264 0 264 200q0 92 -67 141.5t-197 49.5h-350v-391zM250 600h350q108 0 165.5 45t57.5 125q0 174 -223 174 h-350v-344z" />
<glyph unicode="&#x433;" horiz-adv-x="819" d="M133 0v1053h698v-109h-569v-944h-129z" />
<glyph unicode="&#x434;" d="M12 109h125q76 140 111 335t35 474v135h688v-944h147v-445h-129v336h-848v-336h-129v445zM270 109h572v835h-434v-70q0 -250 -38 -446t-100 -319z" />
<glyph unicode="&#x435;" horiz-adv-x="1062" d="M66 514q0 250 134.5 408.5t346.5 158.5q91 0 167.5 -29t130.5 -80t91.5 -121t55.5 -150.5t18 -168.5v-36h-813q0 -68 12.5 -129.5t40 -116t68 -94.5t101 -63t134.5 -23q126 0 208 70t113 206h125q-34 -178 -150.5 -279.5t-299.5 -101.5q-220 0 -351.5 149.5t-131.5 399.5 zM197 600h684q-11 175 -100.5 275t-237.5 100q-83 0 -146.5 -30t-103.5 -84t-63 -118.5t-33 -142.5z" />
<glyph unicode="&#x436;" horiz-adv-x="1517" d="M-10 0l456 614l-411 439h174l485 -537v537h129v-535l486 535h174l-412 -439l457 -614h-158l-389 528l-158 -163v-365h-129v365l-157 163l-390 -528h-157z" />
<glyph unicode="&#x437;" horiz-adv-x="993" d="M57 330h129q16 -121 89 -186.5t221 -65.5q83 0 142 20t89 55t42.5 73t12.5 83q0 86 -55 138.5t-170 52.5h-176v98h145q96 0 160 51.5t64 141.5q0 33 -10.5 62t-36.5 58.5t-80.5 46.5t-133.5 17q-138 0 -206 -61t-78 -166h-127q7 93 43 160.5t94 104.5t126 53.5t151 16.5 q84 0 153 -15.5t123.5 -48.5t84.5 -89t30 -131q0 -87 -51 -153.5t-119 -80.5v-4q40 -7 74 -23.5t64.5 -45t48.5 -74.5t18 -105q0 -110 -60.5 -190t-154.5 -117t-209 -37q-203 0 -314.5 96.5t-122.5 264.5z" />
<glyph unicode="&#x438;" horiz-adv-x="1099" d="M121 0v1053h129v-901l569 901h160v-1053h-129v901l-569 -901h-160z" />
<glyph unicode="&#x439;" horiz-adv-x="1099" d="M121 0v1053h129v-901l569 901h160v-1053h-129v901l-569 -901h-160zM258 1462h80q9 -78 65 -123t146 -45q88 0 145 44t72 124h80q-23 -130 -98.5 -198t-200.5 -68q-127 0 -200.5 68t-88.5 198z" />
<glyph unicode="&#x43a;" horiz-adv-x="1024" d="M123 0v1053h129v-539l586 539h172l-449 -410l475 -643h-162l-407 555l-215 -199v-356h-129z" />
<glyph unicode="&#x43b;" horiz-adv-x="1099" d="M18 0v104q37 -18 115 -18q67 0 103.5 80t42.5 256l20 631h684v-1053h-129v944h-430l-18 -528q-7 -230 -75.5 -334.5t-199.5 -104.5q-54 0 -113 23z" />
<glyph unicode="&#x43c;" horiz-adv-x="1366" d="M121 0v1053h172l393 -908l389 908h172v-1053h-129v866h-6l-371 -866h-114l-371 866h-6v-866h-129z" />
<glyph unicode="&#x43d;" horiz-adv-x="1099" d="M121 0v1053h129v-449h600v449h129v-1053h-129v496h-600v-496h-129z" />
<glyph unicode="&#x43e;" d="M70 526q0 254 136 405.5t365 151.5q227 0 361.5 -151.5t134.5 -409.5q0 -255 -133.5 -404t-362.5 -149q-230 0 -365.5 151t-135.5 406zM201 526q0 -208 99.5 -329t272.5 -121q167 0 266 121.5t99 326.5q0 206 -100 328.5t-269 122.5q-167 0 -267.5 -122.5t-100.5 -326.5z " />
<glyph unicode="&#x43f;" horiz-adv-x="1099" d="M121 0v1053h858v-1053h-129v944h-600v-944h-129z" />
<glyph unicode="&#x440;" horiz-adv-x="1175" d="M129 -393v1446h117v-203q114 233 377 233q215 0 345 -153.5t130 -407.5q0 -250 -129.5 -402.5t-341.5 -152.5q-129 0 -224 57.5t-149 170.5v-588h-125zM250 524q0 -207 97 -327.5t263 -120.5q161 0 259 122t98 324q0 207 -98 331t-263 124q-166 0 -261 -120.5t-95 -332.5 z" />
<glyph unicode="&#x441;" horiz-adv-x="1062" d="M74 516q0 258 134 412.5t357 154.5q183 0 296.5 -95.5t135.5 -266.5h-131q-25 125 -101.5 190.5t-197.5 65.5q-165 0 -262.5 -122.5t-97.5 -328.5t94 -328t254 -122q132 0 217 79.5t105 221.5h129q-27 -185 -143 -296.5t-302 -111.5q-221 0 -354 149t-133 398z" />
<glyph unicode="&#x442;" horiz-adv-x="909" d="M0 944v109h911v-109h-391v-944h-129v944h-391z" />
<glyph unicode="&#x443;" horiz-adv-x="948" d="M-2 1053h141l285 -725q13 -35 20 -53.5t10 -28t11.5 -38t21.5 -67.5q55 176 64 201l260 711h131l-414 -1092q-23 -62 -37.5 -98t-34.5 -80t-36 -67.5t-38 -49.5t-45.5 -37.5t-53.5 -19.5t-66 -8q-51 0 -113 10v113q61 -15 93 -15q19 0 35.5 4.5t29.5 9.5t26.5 18 t22.5 22.5t21 30.5t18.5 33t18 40.5t16.5 42t18 48.5t19 50z" />
<glyph unicode="&#x444;" horiz-adv-x="1638" d="M78 524q0 273 108.5 418t302.5 145q86 0 154.5 -37.5t108.5 -105.5h4v514h129v-514h4q40 68 108 105.5t154 37.5q195 0 303.5 -145t108.5 -418q0 -256 -118.5 -405.5t-291.5 -149.5q-85 0 -156.5 39.5t-107.5 102.5h-4v-504l-129 2v502q0 -2 -4 0q-36 -63 -108 -102.5 t-157 -39.5q-173 0 -291 149.5t-118 405.5zM207 524q0 -226 84 -336t229 -110q101 0 168.5 64t67.5 165v447q0 97 -67.5 161t-166.5 64q-140 0 -227.5 -113t-87.5 -342zM885 307q0 -101 67 -165t168 -64q145 0 229.5 110t84.5 336q0 229 -88 342t-228 113q-99 0 -166 -64 t-67 -161v-447z" />
<glyph unicode="&#x445;" horiz-adv-x="985" d="M2 0l408 553l-377 500h164l227 -308q11 -15 32.5 -49t32.5 -49q13 20 23 34.5t13 19.5t10.5 15.5t21.5 28.5l234 308h151l-373 -492l416 -561h-164l-280 385q-7 11 -23.5 35t-30.5 45q-9 -14 -53 -78l-278 -387h-154z" />
<glyph unicode="&#x446;" d="M115 0v1053h129v-944h600v944h129v-944h145v-445h-129v336h-874z" />
<glyph unicode="&#x447;" horiz-adv-x="1024" d="M86 778v275h129v-289q0 -59 15.5 -100.5t35.5 -62t55.5 -31.5t60 -13t64.5 -2q79 0 176 19t158 44v435h129v-1053h-129v502q-66 -25 -168 -44.5t-192 -19.5q-165 0 -249.5 80.5t-84.5 259.5z" />
<glyph unicode="&#x448;" horiz-adv-x="1615" d="M121 0v1053h129v-944h493v944h129v-944h494v944h129v-1053h-1374z" />
<glyph unicode="&#x449;" horiz-adv-x="1654" d="M115 0v1053h129v-944h493v944h129v-944h494v944h129v-944h145v-445h-129v336h-1390z" />
<glyph unicode="&#x44a;" horiz-adv-x="1251" d="M0 944v109h475v-414h399q153 0 243.5 -86t90.5 -234q0 -149 -90 -234t-244 -85h-528v944h-346zM475 109h369q111 0 173 54t62 156q0 101 -62 156t-173 55h-369v-421z" />
<glyph unicode="&#x44b;" horiz-adv-x="1366" d="M117 0v1053h129v-414h342q153 0 243.5 -86t90.5 -234q0 -149 -90 -234t-244 -85h-471zM246 109h311q112 0 174 54t62 156q0 101 -62.5 156t-173.5 55h-311v-421zM1120 0v1053h129v-1053h-129z" />
<glyph unicode="&#x44c;" horiz-adv-x="1024" d="M121 0v1053h129v-414h399q153 0 243.5 -86t90.5 -234q0 -149 -90 -234t-244 -85h-528zM250 109h368q112 0 174 54t62 156q0 101 -62.5 156t-173.5 55h-368v-421z" />
<glyph unicode="&#x44d;" horiz-adv-x="1062" d="M63 340h130q28 -126 110 -195t205 -69q151 0 244 109.5t102 297.5h-483v109h483q-15 179 -110.5 282t-247.5 103q-115 0 -190 -59.5t-103 -172.5h-133q28 160 140 249t288 89q223 0 357 -154.5t134 -412.5q0 -249 -133 -398t-354 -149q-177 0 -290.5 100t-148.5 271z" />
<glyph unicode="&#x44e;" horiz-adv-x="1556" d="M121 0v1053h129v-449h242q22 221 154.5 350t342.5 129q227 0 361.5 -151.5t134.5 -409.5q0 -255 -133.5 -404t-362.5 -149q-222 0 -357.5 142.5t-144.5 384.5h-237v-496h-129zM618 526q0 -207 100 -328.5t273 -121.5q167 0 266 121.5t99 326.5q0 206 -100 328.5 t-269 122.5q-167 0 -268 -122.5t-101 -326.5z" />
<glyph unicode="&#x44f;" horiz-adv-x="1062" d="M6 0l391 446q-142 9 -227.5 89.5t-85.5 214.5q0 138 86.5 220.5t232.5 82.5h533v-1053h-129v442h-262l-371 -442h-168zM213 748q0 -93 58 -145t163 -52h373v393h-373q-105 0 -163 -52.5t-58 -143.5z" />
<glyph unicode="&#x451;" horiz-adv-x="1062" d="M66 514q0 250 134.5 408.5t346.5 158.5q91 0 167.5 -29t130.5 -80t91.5 -121t55.5 -150.5t18 -168.5v-36h-813q0 -68 12.5 -129.5t40 -116t68 -94.5t101 -63t134.5 -23q126 0 208 70t113 206h125q-34 -178 -150.5 -279.5t-299.5 -101.5q-220 0 -351.5 149.5t-131.5 399.5 zM197 600h684q-11 175 -100.5 275t-237.5 100q-83 0 -146.5 -30t-103.5 -84t-63 -118.5t-33 -142.5zM279 1253v205h135v-205h-135zM651 1253v205h133v-205h-133z" />
<glyph unicode="&#x452;" horiz-adv-x="1099" d="M14 944v109h107v405h129v-405h477v-109h-477v-366h4q96 213 356 213q186 0 277.5 -101t91.5 -307v-193q0 -154 -64 -283.5t-187 -210.5t-282 -87v121q125 7 217.5 73t139.5 171.5t47 234.5v153q0 161 -65.5 240.5t-198.5 79.5q-149 0 -242.5 -101t-93.5 -262v-319h-129 v944h-107z" />
<glyph unicode="&#x453;" horiz-adv-x="819" d="M121 0v1053h690v-109h-561v-944h-129zM311 1214l205 289h158l-258 -289h-105z" />
<glyph unicode="&#x454;" horiz-adv-x="1062" d="M74 516q0 258 134 412.5t357 154.5q176 0 288 -89t140 -249h-133q-28 113 -103 172.5t-190 59.5q-152 0 -247.5 -103t-110.5 -282h493v-109h-493q9 -188 102 -297.5t244 -109.5q123 0 205 69t110 195h129q-35 -171 -148 -271t-290 -100q-221 0 -354 149t-133 398z" />
<glyph unicode="&#x455;" horiz-adv-x="985" d="M66 344h124q0 -131 82 -200.5t230 -69.5q129 0 207.5 56.5t78.5 148.5q0 39 -18 71t-43 51.5t-64 36t-70 24.5t-71 18q-15 3 -22 5q-17 4 -53 12t-56 12.5t-54 14t-54.5 18t-49.5 22t-46.5 27.5t-37 34t-30.5 43t-18 52.5t-7 63.5q0 138 103.5 217.5t283.5 79.5 t289 -86.5t109 -249.5h-125q-17 230 -285 230q-114 0 -180 -47t-66 -127q0 -24 4 -44t16 -36.5t22 -28t34.5 -23.5t41 -19t53.5 -16.5t59.5 -15t70.5 -16.5t77 -18t75 -22t75 -30t63.5 -39t54 -51.5t33 -66t13.5 -84.5q0 -145 -115 -234.5t-302 -89.5q-203 0 -315.5 98 t-116.5 279z" />
<glyph unicode="&#x456;" horiz-adv-x="378" d="M125 0v1053h129v-1053h-129zM125 1253v211h129v-211h-129z" />
<glyph unicode="&#x457;" horiz-adv-x="378" d="M-63 1253v209h135v-209h-135zM125 0v1053h129v-1053h-129zM309 1253v209h133v-209h-133z" />
<glyph unicode="&#x458;" horiz-adv-x="378" d="M-57 -291q23 -2 49 -2q34 0 51.5 2.5t38 13t29.5 32.5t15.5 62t6.5 101v1135h127v-1123q0 -49 -1.5 -82t-7 -71.5t-16.5 -62.5t-29.5 -48.5t-45 -38t-65.5 -22t-89 -8.5q-19 0 -63 6v106zM133 1255v211h127v-211h-127z" />
<glyph unicode="&#x459;" horiz-adv-x="1593" d="M18 0v104q37 -18 115 -18q67 0 103.5 80t42.5 256l20 631h614v-414h285q153 0 243.5 -86t90.5 -234q0 -149 -90 -234t-244 -85h-414v944h-360l-18 -528q-7 -230 -75.5 -334.5t-199.5 -104.5q-54 0 -113 23zM913 109h254q112 0 174 54t62 156q0 101 -62.5 156t-173.5 55 h-254v-421z" />
<glyph unicode="&#x45a;" horiz-adv-x="1593" d="M121 0v1053h129v-414h518v414h129v-414h297q153 0 243.5 -86t90.5 -234q0 -149 -90 -234t-244 -85h-426v530h-518v-530h-129zM897 109h266q112 0 174 54t62 156q0 101 -62.5 156t-173.5 55h-266v-421z" />
<glyph unicode="&#x45b;" horiz-adv-x="1099" d="M14 944v109h107v405h129v-405h477v-109h-477v-366h4q96 213 356 213q186 0 277.5 -101t91.5 -307v-383h-129v362q0 161 -65.5 240.5t-198.5 79.5q-149 0 -242.5 -101t-93.5 -262v-319h-129v944h-107z" />
<glyph unicode="&#x45c;" horiz-adv-x="1024" d="M123 0v1053h129v-539l586 539h172l-449 -410l479 -643h-161l-412 555l-215 -199v-356h-129zM414 1214l204 289h158l-258 -289h-104z" />
<glyph unicode="&#x45e;" horiz-adv-x="948" d="M-2 1053h141l285 -725q13 -35 20 -53.5t10 -28t11.5 -38t21.5 -67.5q55 176 64 201l260 711h131l-414 -1092q-23 -62 -37.5 -98t-34.5 -80t-36 -67.5t-38 -49.5t-45.5 -37.5t-53.5 -19.5t-66 -8q-51 0 -113 10v113q61 -15 93 -15q19 0 35.5 4.5t29.5 9.5t26.5 18 t22.5 22.5t21 30.5t18.5 33t18 40.5t16.5 42t18 48.5t19 50zM197 1462h79q9 -78 65 -123t146 -45q88 0 145.5 44.5t72.5 123.5h79q-23 -130 -98.5 -198t-200.5 -68q-127 0 -200 68t-88 198z" />
<glyph unicode="&#x45f;" horiz-adv-x="1099" d="M121 0v1053h129v-944h600v944h129v-1053h-365v-336h-129v336h-364z" />
<glyph unicode="&#x490;" horiz-adv-x="1062" d="M147 0v1458h762v334h140v-453h-762v-1339h-140z" />
<glyph unicode="&#x491;" horiz-adv-x="819" d="M121 0v1053h555v321h129v-430h-555v-944h-129z" />
<glyph unicode="&#x2000;" horiz-adv-x="923" />
<glyph unicode="&#x2001;" horiz-adv-x="1847" />
<glyph unicode="&#x2002;" horiz-adv-x="923" />
<glyph unicode="&#x2003;" horiz-adv-x="1847" />
<glyph unicode="&#x2004;" horiz-adv-x="615" />
<glyph unicode="&#x2005;" horiz-adv-x="461" />
<glyph unicode="&#x2006;" horiz-adv-x="307" />
<glyph unicode="&#x2007;" horiz-adv-x="307" />
<glyph unicode="&#x2008;" horiz-adv-x="230" />
<glyph unicode="&#x2009;" horiz-adv-x="369" />
<glyph unicode="&#x200a;" horiz-adv-x="102" />
<glyph unicode="&#x2010;" horiz-adv-x="757" d="M123 500v125h514v-125h-514z" />
<glyph unicode="&#x2011;" horiz-adv-x="757" d="M123 500v125h514v-125h-514z" />
<glyph unicode="&#x2012;" horiz-adv-x="757" d="M123 500v125h514v-125h-514z" />
<glyph unicode="&#x2013;" horiz-adv-x="1024" d="M0 500v125h1024v-125h-1024z" />
<glyph unicode="&#x2014;" horiz-adv-x="2048" d="M0 500v125h2048v-125h-2048z" />
<glyph unicode="&#x2018;" horiz-adv-x="569" d="M197 993v226q0 90 49 167.5t131 102.5v-88q-92 -53 -92 -195h80v-213h-168z" />
<glyph unicode="&#x2019;" horiz-adv-x="569" d="M190 963v88q93 54 93 194h-80v213h168v-225q0 -90 -49.5 -167.5t-131.5 -102.5z" />
<glyph unicode="&#x201a;" horiz-adv-x="569" d="M190 -197q52 33 72.5 81t20.5 116h-80v213h168v-225q0 -90 -49 -168t-132 -103v86z" />
<glyph unicode="&#x201c;" horiz-adv-x="757" d="M141 997v177q0 241 172 313v-86q-49 -29 -69.5 -74.5t-20.5 -122.5h78v-207h-160zM455 997v177q0 241 172 313v-86q-49 -29 -69.5 -74.5t-20.5 -122.5h77v-207h-159z" />
<glyph unicode="&#x201d;" horiz-adv-x="757" d="M127 969v86q49 29 69.5 74t20.5 122h-78v207h160v-176q0 -241 -172 -313zM440 969v86q49 29 69.5 74t20.5 122h-77v207h159v-176q0 -241 -172 -313z" />
<glyph unicode="&#x201e;" horiz-adv-x="757" d="M127 -197q49 29 69.5 74.5t20.5 122.5h-78v207h160v-176q0 -242 -172 -314v86zM440 -197q49 29 69.5 74.5t20.5 122.5h-77v207h159v-176q0 -242 -172 -314v86z" />
<glyph unicode="&#x2022;" horiz-adv-x="1024" d="M147 729q0 151 107 258t258 107t258 -107t107 -258t-107 -257.5t-258 -106.5t-258 106.5t-107 257.5z" />
<glyph unicode="&#x2026;" horiz-adv-x="2048" d="M270 0v205h144v-205h-144zM952 0v205h144v-205h-144zM1634 0v205h144v-205h-144z" />
<glyph unicode="&#x202f;" horiz-adv-x="369" />
<glyph unicode="&#x2039;" horiz-adv-x="530" d="M109 481v127l272 256v-137l-191 -182l191 -183v-137z" />
<glyph unicode="&#x203a;" horiz-adv-x="530" d="M152 227v138l190 182l-190 182v137l270 -256v-129z" />
<glyph unicode="&#x205f;" horiz-adv-x="461" />
<glyph unicode="&#x2122;" horiz-adv-x="2027" d="M244 1382v76h596v-76h-256v-653h-84v653h-256zM975 729v729h127l231 -604l232 604h123v-729h-76v645l-246 -645h-72l-243 645v-645h-76z" />
<glyph unicode="&#xe000;" horiz-adv-x="1054" d="M0 0v1055h1055v-1055h-1055z" />
</font>
</defs>
</svg>
